# xmcd
# Track frame offsets:
# 150
# 17127
# 33771
# 51216
# 70393
# 87190
# 101520
# 115164
# 130260
# 148526
# 166898
# 182498
# 198329
# 212091
# 226343
# 242027
# 259588
# 272417
# 290205
# 306349
# 324172
#
# Disc length: 4557 seconds
# Revision: 0
# Processed by: cddbd v1.5.2PL0 Copyright (c) Steve Scherf et al.
# Submitted via: VisiTrax 2.10.0.248 - For more info visit www.synapsa.com
#
DISCID=2711cb15
DTITLE=Faith Hill - 360 Degrees P14 Promo Country Radio#55 09-02
DYEAR=2002
DGENRE=Country Radio
TTITLE0=Faith Hill - Cry (waltz)
TTITLE1=Gary Allan - Man To Man
TTITLE2=Dixie Chicks - Landslide (s)
TTITLE3=Andy Griggs - Practice Life
TTITLE4=LeAnn Rimes - Life Goes On
TTITLE5=Daryl Singletary - Id Love To Lay You Down
TTITLE6=Confederate Railroad - White Trash With Money
TTITLE7=Jenai - Southside Stomp
TTITLE8=Rodney Redman - These Days
TTITLE9=Joe Nichols - The Impossible
TTITLE10=Terri Clark - I Just Wanna Be Mad
TTITLE11=Brooks and Dunn - Every River
TTITLE12=Trick Pony - On A Mission
TTITLE13=Trick Pony - She'll Leave You With A Smile
TTITLE14=Steve Holy - Im Not Breakin
TTITLE15=Hometown News - Wheels
TTITLE16=Emerson Drive - Fall Into Me
TTITLE17=John Michael Montgomery - Til Nothing Comes Between Us
TTITLE18=Nickel Creek - This Side
TTITLE19=Michael Peterson - Modern Man
TTITLE20=Dolly Parton - Dagger Through The Heart
EXTD=
EXTT0=
EXTT1=
EXTT2=
EXTT3=
EXTT4=
EXTT5=
EXTT6=
EXTT7=
EXTT8=
EXTT9=
EXTT10=
EXTT11=
EXTT12=
EXTT13=
EXTT14=
EXTT15=
EXTT16=
EXTT17=
EXTT18=
EXTT19=
EXTT20=
PLAYORDER=
